<svg width="132" height="57" viewBox="0 0 132 57" fill="none" xmlns="http://www.w3.org/2000/svg">
<path d="M10.512 32.428C10.512 33.436 9.576 33.94 8.388 33.94C6.768 33.94 4.32 32.968 3.348 31.924L1.332 34.624C2.088 35.776 5.112 37.396 8.1 37.396C12.06 37.396 14.652 35.416 14.652 32.212C14.652 26.488 5.904 27.964 5.904 25.264C5.904 24.544 6.66 23.86 7.92 23.86C9.648 23.86 11.34 24.652 12.312 25.408L13.86 22.456C12.852 21.52 10.836 20.404 7.704 20.404C4.356 20.404 1.764 22.168 1.764 25.336C1.764 31.24 10.512 29.8 10.512 32.428ZM16.1401 30.844C16.1401 34.984 17.5081 37.36 21.1801 37.36C23.2681 37.36 24.9961 36.568 25.9681 35.776L24.7081 32.572C24.1321 33.004 23.3401 33.508 22.2241 33.508C20.8561 33.508 20.2801 32.356 20.2801 30.592V24.688H25.5001V20.8H20.2801V16.3H16.1401V30.844ZM38.9407 37H43.0808V11.8H38.9407V21.196C38.0408 20.656 36.9968 20.404 35.5568 20.404C30.3368 20.404 26.6647 23.968 26.6647 29.08C26.6647 34.012 29.6527 37.288 34.2968 37.288C36.3848 37.288 37.8607 36.46 38.9407 35.308V37ZM35.1608 33.436C32.9647 33.436 31.0927 31.816 31.0927 28.936C31.0927 25.948 33.2888 24.292 35.7368 24.292C36.8527 24.292 37.8968 24.616 38.9407 25.264V31.78C38.0048 32.716 36.6727 33.436 35.1608 33.436ZM46.5247 23.068C46.5247 24.544 47.6047 25.948 49.4047 25.948C50.9527 25.948 52.0327 24.544 52.0327 23.068C52.0327 21.808 50.9527 20.404 49.4047 20.404C47.6047 20.404 46.5247 21.808 46.5247 23.068ZM46.5247 34.3C46.5247 35.776 47.6047 37.18 49.4047 37.18C50.9527 37.18 52.0327 35.776 52.0327 34.3C52.0327 33.04 50.9527 31.636 49.4047 31.636C47.6047 31.636 46.5247 33.04 46.5247 34.3Z" fill="#191520"/>
<path d="M56.1856 23.068C56.1856 24.544 57.2656 25.948 59.0656 25.948C60.6136 25.948 61.6936 24.544 61.6936 23.068C61.6936 21.808 60.6136 20.404 59.0656 20.404C57.2656 20.404 56.1856 21.808 56.1856 23.068ZM56.1856 34.3C56.1856 35.776 57.2656 37.18 59.0656 37.18C60.6136 37.18 61.6936 35.776 61.6936 34.3C61.6936 33.04 60.6136 31.636 59.0656 31.636C57.2656 31.636 56.1856 33.04 56.1856 34.3ZM65.4865 32.68C65.4865 35.812 66.7105 37.288 69.1585 37.288C70.8505 37.288 72.1105 36.748 72.9745 36.064L72.3265 33.868C71.7865 34.228 71.0665 34.588 70.2745 34.588C68.9065 34.588 68.3665 33.58 68.3665 31.384V11.8H65.4865V32.68ZM74.9919 24.22C76.2879 23.536 77.4759 23.032 79.4559 23.032C82.6599 23.032 83.1279 25.12 83.1279 28.144C82.0479 27.352 80.3559 27.1 79.0959 27.1C75.6039 27.1 72.9759 28.936 72.9759 32.248C72.9759 35.38 74.9919 37.252 77.9439 37.252C80.6079 37.252 82.1559 36.136 83.1279 34.912V37H85.8639V27.064C85.8639 22.852 84.2439 20.44 79.6359 20.44C77.6199 20.44 75.6759 21.016 74.2359 21.916L74.9919 24.22ZM78.9519 34.66C77.0799 34.66 76.0359 33.652 76.0359 32.104C76.0359 30.232 77.7639 29.44 79.4919 29.44C80.8959 29.44 82.1199 29.8 83.1279 30.52V32.572C82.2999 33.544 81.0759 34.66 78.9519 34.66ZM88.8865 35.488C90.4345 36.604 92.9185 37.36 95.5105 37.36C100.947 37.36 104.511 33.976 104.511 28.648C104.511 23.86 101.631 20.44 96.8065 20.44C94.8625 20.44 92.9185 21.304 91.7665 22.348V11.8H88.8865V35.488ZM96.1585 23.14C99.2905 23.14 101.451 25.228 101.451 28.864C101.451 32.5 98.9305 34.66 95.6545 34.66C94.2505 34.66 93.0625 34.408 91.7665 33.544V25.228C92.5585 24.22 94.2865 23.14 96.1585 23.14ZM119.624 32.968C118.58 33.94 116.744 34.66 114.656 34.66C111.488 34.66 109.256 32.86 109.004 29.8H121.46C121.568 29.296 121.64 28.648 121.64 27.856C121.64 23.392 118.292 20.44 114.116 20.44C108.788 20.44 105.764 24.184 105.764 28.9C105.764 34.012 109.184 37.36 114.44 37.36C116.6 37.36 118.94 36.676 120.524 35.236L119.624 32.968ZM113.972 23.14C116.78 23.14 118.508 24.796 118.652 27.46H108.824C109.148 24.976 111.02 23.14 113.972 23.14ZM123.747 32.68C123.747 35.812 124.971 37.288 127.419 37.288C129.111 37.288 130.371 36.748 131.235 36.064L130.587 33.868C130.047 34.228 129.327 34.588 128.535 34.588C127.167 34.588 126.627 33.58 126.627 31.384V11.8H123.747V32.68Z" fill="#40B692"/>
<path d="M2.982 45.218C3.5 45.218 3.976 45.414 4.116 45.624C4.032 45.666 3.976 45.82 3.976 45.904C3.976 46.184 4.214 46.408 4.494 46.408C4.788 46.408 5.026 46.17 5.026 45.876C5.026 45.176 3.962 44.574 2.968 44.574C1.764 44.574 0.938 45.232 0.938 46.24C0.938 48.55 4.424 47.766 4.424 49.348C4.424 50.16 3.738 50.482 3.01 50.482C2.226 50.482 1.526 50.132 1.134 49.488L0.63 49.838C1.078 50.706 2.044 51.126 2.926 51.126C4.13 51.126 5.194 50.566 5.194 49.32C5.194 47.108 1.708 47.892 1.708 46.226C1.708 45.638 2.198 45.218 2.982 45.218ZM6.18789 45.386H7.04189V48.606C7.04189 50.216 7.61589 51.084 9.01589 51.084C9.61789 51.084 10.1359 50.874 10.4299 50.636L10.1919 50.062C9.96789 50.23 9.60389 50.398 9.18389 50.398C8.17589 50.398 7.76989 49.726 7.76989 48.494V45.386H10.3039V44.7H7.76989V42.95H7.04189V44.7H6.18789V45.386ZM15.9954 45.302H16.8494V49.348C16.4434 49.88 15.6034 50.44 14.7214 50.44C13.3634 50.44 12.7754 49.67 12.7754 48.2V44.7H12.0474H11.1934V45.302H12.0474V48.354C12.0474 50.258 12.9294 51.126 14.4554 51.126C15.4634 51.126 16.3734 50.594 16.8494 50.006V51H18.4314V50.398H17.5774V44.7H15.9954V45.302ZM23.5465 41.802H24.5405V45.12C24.0225 44.742 23.4485 44.574 22.7205 44.574C20.7605 44.574 19.2905 45.932 19.2905 47.878C19.2905 49.838 20.5085 51.112 22.3705 51.112C23.2805 51.112 24.0505 50.664 24.5405 50.104V51H26.1225V50.398H25.2685V41.2H24.5405H23.5465V41.802ZM22.5105 50.496C21.0685 50.496 20.0605 49.502 20.0605 47.85C20.0605 46.254 21.2645 45.19 22.7345 45.19C23.3225 45.19 23.8965 45.344 24.5405 45.834V49.432C24.1345 49.936 23.3505 50.496 22.5105 50.496ZM26.6088 45.302H27.1128L29.9268 51L29.7868 51.336C29.1848 52.778 28.7228 53.128 28.2188 53.128C28.2188 53.128 28.2748 53.044 28.2748 52.946C28.2748 52.68 28.0508 52.456 27.7848 52.456C27.5188 52.456 27.2948 52.666 27.2948 52.988C27.2948 53.38 27.6588 53.8 28.2468 53.8C29.1008 53.8 29.6888 53.254 30.6128 51L32.9088 45.302H33.4128V44.7H31.1588V45.302H32.0968L30.6408 49.124C30.5148 49.474 30.3888 49.81 30.2908 50.132L29.8428 49.152L27.9808 45.302H28.9468V44.7H26.6088V45.302ZM41.424 51H42.95V50.398H42.096C42.096 49.11 42.124 48.2 42.124 47.066C42.124 45.47 41.522 44.574 39.772 44.574C38.778 44.574 37.63 45.092 37.63 45.848C37.63 46.198 37.826 46.38 38.148 46.38C38.442 46.38 38.61 46.17 38.61 45.89C38.61 45.792 38.554 45.666 38.47 45.61C38.666 45.358 39.086 45.19 39.772 45.19C41.34 45.19 41.424 46.184 41.424 47.724C40.92 47.36 40.22 47.248 39.716 47.248C38.358 47.248 37.322 47.948 37.322 49.208C37.322 50.356 38.106 51.084 39.268 51.084C40.416 51.084 41.032 50.566 41.424 50.034V51ZM39.492 50.468C38.708 50.468 38.092 49.992 38.092 49.166C38.092 48.186 38.96 47.78 39.786 47.78C40.43 47.78 40.962 47.976 41.424 48.354V49.404C41.074 49.894 40.556 50.468 39.492 50.468ZM44.7145 44.7H43.8605V45.302H44.7145V50.398H43.8605V51H46.2545V50.398H45.4425V46.24C45.8625 45.736 46.6745 45.274 47.5425 45.274C48.9425 45.274 49.6145 46.002 49.6145 47.542V50.398H48.8025V51H51.1545V50.398H50.3425V47.402C50.3425 45.428 49.4185 44.588 47.7105 44.588C46.8145 44.588 45.9185 45.036 45.4425 45.582V44.7H44.7145ZM56.2496 41.802H57.2436V45.12C56.7256 44.742 56.1516 44.574 55.4236 44.574C53.4636 44.574 51.9936 45.932 51.9936 47.878C51.9936 49.838 53.2116 51.112 55.0736 51.112C55.9836 51.112 56.7536 50.664 57.2436 50.104V51H58.8256V50.398H57.9716V41.2H57.2436H56.2496V41.802ZM55.2136 50.496C53.7716 50.496 52.7636 49.502 52.7636 47.85C52.7636 46.254 53.9676 45.19 55.4376 45.19C56.0256 45.19 56.5996 45.344 57.2436 45.834V49.432C56.8376 49.936 56.0536 50.496 55.2136 50.496ZM63.3488 51.924C63.3488 51.042 64.3008 50.496 65.7568 50.496C67.2268 50.496 68.1648 51.056 68.1648 51.924C68.1648 52.792 67.2268 53.324 65.7568 53.324C64.3008 53.324 63.3488 52.792 63.3488 51.924ZM63.9928 46.8C63.9928 45.876 64.7208 45.162 65.7428 45.162C66.7508 45.162 67.4928 45.876 67.4928 46.8C67.4928 47.724 66.7928 48.438 65.7428 48.438C64.7068 48.438 63.9928 47.724 63.9928 46.8ZM68.2348 46.8C68.2348 45.54 67.2548 44.574 65.7428 44.574C64.2308 44.574 63.2508 45.54 63.2508 46.8C63.2508 47.696 63.7408 48.452 64.5668 48.802C64.4128 48.97 64.3288 49.194 64.3288 49.432C64.3288 49.642 64.3988 49.866 64.5388 50.034C63.3628 50.286 62.6068 50.93 62.6068 51.924C62.6068 53.254 63.9228 53.912 65.7568 53.912C67.5908 53.912 68.9068 53.226 68.9068 51.924C68.9068 50.594 67.5908 49.908 65.7568 49.908C65.5468 49.908 65.3648 49.922 65.1688 49.936C65.0428 49.796 64.9868 49.628 64.9868 49.432C64.9868 49.264 65.0148 49.11 65.1128 48.97C65.3088 49.012 65.5188 49.026 65.7428 49.026C67.2408 49.026 68.2348 48.06 68.2348 46.8ZM67.8848 45.652C68.4728 45.484 69.0748 45.008 69.0748 44.462C69.0748 44.154 68.8368 43.916 68.5428 43.916C68.2628 43.916 68.0248 44.168 68.0248 44.448C68.0248 44.616 68.0948 44.77 68.2488 44.854C68.1648 45.008 67.9268 45.19 67.5768 45.26L67.8848 45.652ZM71.4464 46.296C71.7264 45.82 72.1884 45.26 72.9304 45.26C73.0424 45.26 73.1264 45.274 73.2104 45.288C73.1544 45.316 73.1124 45.386 73.1124 45.442C73.1124 45.708 73.3504 45.946 73.6584 45.946C73.9664 45.946 74.2044 45.708 74.2044 45.4C74.2044 44.896 73.8124 44.588 73.1404 44.588C72.3144 44.588 71.7964 45.008 71.4464 45.54V44.7H70.7184H69.8644V45.302H70.7184V50.398H69.8644V51H72.6364V50.398H71.4464V46.296ZM75.0444 47.85C75.0444 49.74 76.3884 51.126 78.3484 51.126C80.3084 51.126 81.6524 49.74 81.6524 47.85C81.6524 45.96 80.3084 44.574 78.3484 44.574C76.3884 44.574 75.0444 45.96 75.0444 47.85ZM75.8144 47.85C75.8144 46.324 76.8924 45.26 78.3484 45.26C79.8324 45.26 80.8824 46.338 80.8824 47.85C80.8824 49.376 79.8324 50.44 78.3484 50.44C76.8784 50.44 75.8144 49.362 75.8144 47.85ZM90.0223 45.302H91.0443L89.8963 49.026C89.7983 49.376 89.6863 49.698 89.6023 50.048C89.4903 49.726 89.3923 49.404 89.2803 49.096L87.6423 44.7H87.0403L85.4303 49.11C85.3043 49.446 85.2203 49.726 85.1223 50.034C85.0243 49.726 84.9543 49.432 84.8563 49.11L83.6243 45.302H84.5623V44.7H82.2243V45.302H82.8403L84.7583 51.084H85.3323L87.0263 46.548C87.1383 46.268 87.2223 46.002 87.3063 45.708C87.3903 45.974 87.4883 46.24 87.5863 46.506L89.3223 51.084H89.9243L91.7723 45.302H92.3743V44.7H90.0223V45.302ZM92.7992 45.386H93.6532V48.606C93.6532 50.216 94.2272 51.084 95.6272 51.084C96.2292 51.084 96.7472 50.874 97.0412 50.636L96.8032 50.062C96.5792 50.23 96.2152 50.398 95.7952 50.398C94.7872 50.398 94.3812 49.726 94.3812 48.494V45.386H96.9152V44.7H94.3812V42.95H93.6532V44.7H92.7992V45.386ZM97.8468 51H100.199V50.398H99.4568V46.24C99.8628 45.736 100.703 45.274 101.557 45.274C102.957 45.274 103.629 46.016 103.629 47.528V50.398H102.817V51H105.169V50.398H104.357V47.416C104.357 45.442 103.433 44.588 101.725 44.588C100.857 44.588 99.9468 45.008 99.4568 45.554V41.2H98.7288H97.7348V41.802H98.7288V50.398H97.8468V51Z" fill="black"/>
</svg>
